<svg width="220" height="290" viewBox="0 0 220 290" fill="none" xmlns="http://www.w3.org/2000/svg">
<path d="M136.561 285C136.561 287.761 134.322 290 131.561 290H96.1563C93.3948 290 91.1562 287.761 91.1562 285V221.43C91.1562 218.668 93.3948 216.43 96.1562 216.43H131.561C134.322 216.43 136.561 218.668 136.561 221.43V285Z" fill="#82564D"/>
<path d="M161.183 231.379C161.183 231.379 192.416 257.905 207.556 255.573C210.81 255.072 214.049 254.01 216.354 252.023C221.683 247.427 220.259 239.906 217.818 233.838C201.777 193.945 145.865 159.19 112.81 160.539C79.7523 161.889 35.6113 186.11 12.8152 209.971C7.00695 216.05 1.67574 222.83 0.291949 230.527C-1.09002 238.222 2.4441 246.993 10.6849 250.603C18.5889 254.064 28.6632 251.909 35.6859 247.305C42.7087 242.702 47.3425 236.074 51.8052 229.611C52.9232 241.236 56.481 254.876 69.3484 259.357C77.7713 262.292 87.8857 259.945 94.8264 254.986C101.764 250.028 105.95 242.868 108.675 235.582C108.59 243.477 113.489 251.292 121.299 255.725C129.108 260.157 139.599 261.074 148.332 258.085C162.796 250.945 161.183 231.379 161.183 231.379Z" fill="#458754"/>
<path d="M161.183 185.163C161.183 185.163 192.416 211.689 207.556 209.357C210.81 208.855 214.049 207.793 216.354 205.807C221.683 201.209 220.259 193.69 217.818 187.622C201.777 147.729 145.865 112.974 112.81 114.322C79.7523 115.673 35.6113 139.894 12.8152 163.755C7.00695 169.834 1.67574 176.613 0.291949 184.311C-1.09002 192.006 2.4441 200.777 10.6849 204.385C18.5889 207.848 28.6632 205.693 35.6859 201.089C42.7087 196.486 47.3425 189.858 51.8052 183.395C52.9232 195.02 56.481 208.66 69.3484 213.142C77.7713 216.075 87.8857 213.729 94.8264 208.77C101.764 203.812 105.95 196.652 108.675 189.365C108.59 197.261 113.489 205.077 121.299 209.509C129.108 213.94 139.599 214.857 148.332 211.869C162.796 204.729 161.183 185.163 161.183 185.163Z" fill="#366149"/>
<path d="M155.631 138.278C155.631 138.278 183.478 161.927 196.975 159.848C199.876 159.402 202.764 158.454 204.817 156.683C209.57 152.586 208.301 145.882 206.123 140.471C191.823 104.904 141.975 73.9187 112.503 75.122C83.0333 76.3253 43.681 97.9178 23.3557 119.193C18.1774 124.611 13.4216 130.656 12.1907 137.518C10.9581 144.38 14.108 152.199 21.4566 155.417C28.503 158.501 37.4831 156.582 43.7465 152.477C50.0063 148.375 54.1377 142.464 58.1161 136.703C59.1138 147.067 62.2856 159.228 73.7565 163.223C81.2672 165.839 90.2836 163.747 96.4706 159.326C102.656 154.906 106.388 148.521 108.819 142.024C108.743 149.065 113.109 156.032 120.073 159.983C127.036 163.935 136.387 164.752 144.175 162.089C157.07 155.723 155.631 138.278 155.631 138.278Z" fill="#458754"/>
<path d="M151.612 92.2584C151.612 92.2584 176.658 113.53 188.799 111.661C191.408 111.259 194.007 110.408 195.855 108.814C200.128 105.129 198.988 99.0979 197.029 94.2299C184.164 62.2377 139.327 34.3674 112.817 35.4505C86.3079 36.5323 50.9085 55.9547 32.6279 75.0897C27.9704 79.9655 23.6934 85.4032 22.5864 91.5751C21.4775 97.747 24.3124 104.78 30.92 107.675C37.2563 110.45 45.3369 108.723 50.9704 105.031C56.6002 101.34 60.3164 96.0237 63.896 90.8408C64.7919 100.164 67.6468 111.103 77.9651 114.696C84.722 117.049 92.8317 115.168 98.3942 111.191C103.96 107.214 107.316 101.473 109.503 95.6279C109.435 101.962 113.363 108.229 119.626 111.783C125.888 115.336 134.3 116.072 141.306 113.677C152.904 107.949 151.612 92.2584 151.612 92.2584Z" fill="#366149"/>
<path d="M146.392 49.6135C146.392 49.6135 168.254 68.1801 178.851 66.5483C181.129 66.1969 183.396 65.4535 185.009 64.0634C188.74 60.8468 187.744 55.5816 186.034 51.3328C174.805 23.409 135.668 -0.917982 112.529 0.0266167C89.391 0.972522 58.4943 17.9257 42.5371 34.6279C38.4731 38.8819 34.7387 43.6284 33.7701 49.0164C32.8032 54.4031 35.2777 60.5423 41.0459 63.0691C46.5792 65.4914 53.631 63.9837 58.5453 60.7605C63.4614 57.5387 66.7042 52.8993 69.8286 48.3762C70.6116 56.5118 73.1024 66.061 82.1079 69.1966C88.0072 71.2517 95.0846 69.6095 99.9424 66.1368C104.798 62.6667 107.73 57.655 109.636 52.5544C109.576 58.0809 113.005 63.5525 118.472 66.6542C123.94 69.7571 131.282 70.3973 137.397 68.3069C147.519 63.3082 146.392 49.6135 146.392 49.6135Z" fill="#458754"/>
<path d="M52.4946 38.5479C56.3019 37.9887 59.6849 36.4013 62.0373 34.2743C64.397 32.1604 65.8536 29.5017 65.7444 26.8338C65.7353 26.5791 66.0157 26.3674 66.3707 26.3596C66.6857 26.353 66.9552 26.5111 67.0189 26.7254L67.0244 26.745L68.1514 30.5848C68.5411 31.8665 68.8106 33.1612 69.3586 34.3357C69.8903 35.5103 70.7606 36.5764 72.0952 37.1983C73.4044 37.8385 75.1086 38.0292 76.7437 37.8568C78.3878 37.6947 79.9919 37.1996 81.3193 36.4771C82.6412 35.7664 83.6954 34.7799 84.5329 33.6929C86.1971 31.5046 86.8999 28.9464 87.5718 26.3922L87.5754 26.3818C87.6574 26.0656 88.0834 25.8566 88.5259 25.9167C88.9265 25.9702 89.2032 26.2276 89.1887 26.5111C89.0867 28.6211 89.7349 30.7429 90.953 32.6686C92.1765 34.5918 94.0865 36.3099 96.5555 37.4844C99.0154 38.6485 102.031 39.2155 105.028 39.1554C108.023 39.0888 111.045 38.3271 113.338 36.8455C111.245 38.4826 108.181 39.4154 105.069 39.6231C101.947 39.8492 98.6931 39.3553 95.9601 38.1559C93.2308 36.9657 91.0677 35.1641 89.6329 33.1259C88.189 31.0813 87.5099 28.7766 87.5591 26.4824L89.1759 26.6C88.5405 29.1698 87.885 31.8456 86.0897 34.2965C85.1848 35.4946 84.0268 36.6744 82.3972 37.5145C80.8058 38.3532 78.9395 38.9085 76.9695 39.0888C75.0194 39.2756 72.8654 39.0391 71.1594 38.1847C69.4205 37.3446 68.4045 35.9885 67.8437 34.6911C67.2702 33.3729 66.9989 32.069 66.6784 30.7873L65.7571 26.9187L67.0353 26.8286C66.9771 29.7421 65.3001 32.5432 62.6473 34.648C59.9999 36.7436 56.3729 38.2487 52.4946 38.5479Z" fill="#FAF6DF"/>
<path d="M125.03 25.0847C126.15 26.7583 127.226 28.4673 128.819 29.8548C130.343 31.2501 132.586 32.2443 134.897 32.375C137.22 32.5514 139.311 31.5597 140.516 30.1082C141.752 28.6436 142.419 26.8746 142.941 25.0978L142.947 25.0821C143.047 24.7424 143.511 24.5255 143.983 24.5974C144.4 24.6614 144.684 24.9279 144.678 25.2206C144.636 27.5279 145.949 29.8325 148.087 31.6473C149.159 32.5605 150.477 33.317 151.91 33.9506C153.354 34.5777 154.978 34.9958 156.686 35.2075C154.947 35.231 153.199 34.924 151.575 34.417C149.938 33.9167 148.478 33.138 147.205 32.2339C144.658 30.427 142.961 27.895 142.925 25.2206L144.66 25.3447C144.141 27.1817 143.533 29.0865 142.025 30.7915C141.268 31.6264 140.283 32.4338 138.97 32.9276C137.683 33.4267 136.161 33.6371 134.731 33.492C131.856 33.202 129.517 31.8628 128.022 30.282C126.521 28.675 125.735 26.8668 125.03 25.0847Z" fill="#FAF6DF"/>
<path d="M132.156 80.116C133.164 81.5035 134.832 82.665 136.835 83.1013C138.842 83.5482 140.99 83.0909 142.56 82.1489C144.173 81.2121 145.203 79.8821 145.771 78.4397C146.372 76.9987 146.602 75.4635 146.811 73.9023C146.857 73.5652 147.275 73.3196 147.743 73.3509C148.095 73.3771 148.377 73.5521 148.475 73.7795L148.484 73.7991C149.156 75.3577 150.333 76.8092 151.9 77.9995C153.455 79.1753 155.405 80.1604 157.481 80.6948C158.506 80.943 159.476 80.9469 160.048 80.5602C160.671 80.1669 161.122 79.302 161.514 78.5443C162.251 76.9791 162.601 75.3042 162.457 73.6358L162.455 73.607C162.432 73.3535 162.699 73.1367 163.051 73.121C163.389 73.1066 163.682 73.2856 163.722 73.5247C164.001 75.2623 165.25 76.9007 167.002 78.1758C168.753 79.4588 171.113 80.3485 173.678 80.6059C171.073 80.6072 168.498 79.8181 166.465 78.5913C164.427 77.3593 162.95 75.6033 162.463 73.6619L163.726 73.5521C164.023 75.3355 163.815 77.1764 163.045 78.9049C162.61 79.7528 162.337 80.6268 161.215 81.4656C160.642 81.8745 159.795 82.0993 159.043 82.1215C158.278 82.1541 157.579 82.0483 156.935 81.9033C154.458 81.2749 152.319 80.231 150.582 78.88C148.856 77.5343 147.53 75.913 146.84 74.144L148.512 74.0408C148.231 75.5994 147.953 77.2103 147.206 78.7729C146.469 80.3211 145.158 81.821 143.253 82.7982C141.414 83.8029 138.782 84.2432 136.609 83.5612C134.463 82.925 132.897 81.5936 132.156 80.116Z" fill="#FAF6DF"/>
<path d="M49.9277 79.8148C51.0985 80.5255 52.6352 80.7934 54.0955 80.7437C55.5648 80.6888 56.9996 80.3269 58.1722 79.7338C60.5774 78.5305 62.0796 76.6256 63.2521 74.6737C63.396 74.432 63.7875 74.3197 64.1279 74.4242C64.4156 74.5143 64.5722 74.7338 64.5176 74.9481L64.5103 74.9768C64.0442 76.8125 64.5085 78.767 65.8067 80.3452C67.094 81.9313 69.3135 83.0445 71.8098 83.3828C74.2842 83.7317 76.9407 83.2914 78.7087 82.0319C80.4894 80.7999 81.4599 78.9002 80.9318 77.1809L82.5487 77.0907C82.2027 79.9115 84.4314 82.9373 88.1093 84.2478C91.7691 85.5438 96.6251 85.161 99.8915 83.1072C96.9801 85.4066 91.8492 86.2611 87.6578 84.9428C83.4864 83.6272 80.6005 80.374 80.9136 76.9993C80.9428 76.6766 81.3342 76.431 81.784 76.4532C82.1481 76.4689 82.4394 76.6557 82.5232 76.8961L82.5287 76.9091C83.2916 79.1015 82.1263 81.4231 79.9523 82.9478C77.7728 84.5469 74.3898 85.1022 71.4602 84.6397C68.4996 84.2347 65.7921 82.838 64.3737 80.9371C62.908 79.0649 62.5038 76.8255 63.2048 74.7743L64.463 75.0774C63.7783 76.0678 63.0136 77.0437 62.0723 77.9426C61.1273 78.8349 60.0002 79.6659 58.6256 80.2407C57.2454 80.8195 55.6613 81.1056 54.0973 81.0703C52.5424 81.0429 50.9692 80.6235 49.9277 79.8148Z" fill="#FAF6DF"/>
<path d="M31.5459 133.837C37.6091 131.281 41.6585 126.621 42.2666 121.748C42.2939 121.514 42.5834 121.343 42.9075 121.362C43.2098 121.382 43.4392 121.561 43.4483 121.773V121.787C43.532 123.667 44.8175 125.471 46.7166 126.746C48.5938 128.033 51.1465 128.849 53.6828 128.711C56.1955 128.594 58.5425 127.491 60.0027 125.987C61.4849 124.495 62.0839 122.543 61.2882 120.866L63.0362 120.552C63.5132 122.673 64.3162 124.762 65.7436 126.6C67.1511 128.441 69.2741 129.977 71.9179 130.828C74.5125 131.671 77.6333 131.831 80.1041 130.783C82.5567 129.792 84.4066 127.777 84.006 125.729L84.0042 125.717C83.9659 125.527 84.1517 125.351 84.4157 125.324C84.6578 125.3 84.8836 125.41 84.9491 125.573C85.6137 127.252 86.9156 128.821 88.7072 130.057C90.4916 131.293 92.7311 132.221 95.1855 132.661C92.6801 132.381 90.2931 131.548 88.3431 130.343C86.3967 129.142 84.8217 127.572 84.0206 125.774L84.9637 125.62C85.5464 128.023 83.5417 130.375 80.7778 131.593C77.9446 132.905 74.2139 132.824 71.2751 131.863C68.2763 130.934 65.842 129.199 64.2725 127.2C62.6738 125.197 61.7907 122.976 61.2518 120.767C61.168 120.414 61.4958 120.079 61.9892 120.017C62.4317 119.96 62.8559 120.147 62.9961 120.445L63.0016 120.453C64.0339 122.613 63.1636 124.981 61.412 126.71C59.6659 128.454 56.8874 129.751 53.783 129.878C50.7077 130.003 47.7398 129.022 45.6678 127.516C43.5903 126.007 42.2502 123.94 42.263 121.797L43.4446 121.837C42.5816 126.995 37.884 131.647 31.5459 133.837Z" fill="#FAF6DF"/>
<path d="M129.099 135.985C131.974 134.604 134.308 132.711 135.825 130.536C137.369 128.378 138.179 125.951 138.003 123.563C137.983 123.298 138.263 123.072 138.633 123.058C138.908 123.047 139.15 123.155 139.266 123.32L139.283 123.345C140.697 125.345 142.17 127.392 144.512 128.664C145.67 129.286 147.041 129.672 148.454 129.693C149.867 129.735 151.307 129.446 152.585 128.95C155.189 127.948 157.075 126.194 158.068 124.145C159.093 122.095 159.369 119.847 159.459 117.6C159.468 117.285 159.83 117.033 160.269 117.04C160.675 117.046 161.005 117.275 161.046 117.557C161.259 119.184 161.775 120.797 162.674 122.291C163.583 123.775 164.943 125.131 166.764 126.093C168.563 127.032 170.86 127.521 173.147 127.464C175.421 127.407 177.759 126.737 179.238 125.391C177.976 126.854 175.594 127.714 173.195 127.897C170.784 128.095 168.237 127.714 166.159 126.708C164.1 125.724 162.516 124.283 161.431 122.71C160.327 121.132 159.706 119.407 159.462 117.667L161.05 117.622C161.001 119.918 160.782 122.284 159.706 124.556C159.158 125.686 158.421 126.78 157.347 127.752C156.281 128.715 154.932 129.505 153.405 130.069C151.89 130.635 150.147 130.974 148.381 130.903C146.611 130.859 144.892 130.346 143.536 129.589C140.783 128.041 139.346 125.83 138.065 123.754L139.346 123.536C139.365 126.109 138.361 128.651 136.568 130.83C134.745 132.991 132.184 134.842 129.099 135.985Z" fill="#FAF6DF"/>
<path d="M138.05 180.424C141.901 179.345 145.241 177.482 147.644 175.145C150.087 172.839 151.644 170.051 151.921 167.201C151.95 166.914 152.298 166.697 152.7 166.718C153.048 166.733 153.325 166.927 153.37 167.167L153.376 167.197C153.733 169.069 154.594 170.972 156.284 172.336C157.933 173.713 160.637 174.165 162.847 173.339C165.087 172.547 166.664 170.956 167.356 169.174C168.08 167.37 168.084 165.401 168.064 163.417V163.41C168.062 163.082 168.432 162.814 168.889 162.811C169.315 162.81 169.668 163.042 169.717 163.34C170.025 165.348 170.742 167.328 171.889 169.167C173.005 171.015 174.584 172.729 176.627 174.118C178.664 175.501 181.19 176.52 183.91 177.106C186.632 177.681 189.6 177.747 192.393 177.176C189.689 177.957 186.619 178.035 183.741 177.583C180.844 177.141 178.116 176.135 175.857 174.729C173.599 173.322 171.809 171.55 170.506 169.625C169.231 167.686 168.441 165.597 168.069 163.479L169.723 163.402C169.774 165.389 169.839 167.465 169.064 169.519C168.346 171.571 166.411 173.528 163.596 174.472C162.201 174.951 160.524 175.122 158.98 174.851C157.418 174.614 156.069 173.919 155.065 173.113C153.101 171.439 152.183 169.367 151.923 167.303L153.376 167.299C152.89 170.358 151.058 173.238 148.37 175.559C145.645 177.853 142.049 179.635 138.05 180.424Z" fill="#FAF6DF"/>
<path d="M65.9785 185.547C69.4362 184.824 71.967 182.79 73.349 180.544C74.7965 178.273 75.2462 175.752 75.6159 173.233C75.6577 172.944 76.0219 172.733 76.4225 172.765C76.7666 172.79 77.0288 172.983 77.0743 173.217L77.0779 173.245C77.4731 175.387 78.2123 177.525 79.8838 179.226C81.4678 180.903 84.1644 182.128 86.901 182.108C89.6395 182.138 92.1066 180.696 93.4631 178.901C94.8869 177.088 95.2911 174.899 95.628 172.721L95.6334 172.692C95.679 172.409 96.034 172.205 96.4291 172.236C96.7332 172.262 96.9699 172.419 97.0445 172.619C97.873 174.887 99.8012 177.032 102.682 178.216C105.497 179.418 109.346 179.549 112.272 178.192C110.946 178.996 109.211 179.444 107.448 179.525C105.686 179.611 103.872 179.371 102.246 178.8C99.0091 177.619 96.7405 175.361 95.6553 172.908L97.07 172.807C96.8861 175.024 96.522 177.364 94.9834 179.494C94.2005 180.544 93.1208 181.494 91.7497 182.222C90.3878 182.951 88.6635 183.408 86.9119 183.413C83.3851 183.401 80.2898 181.896 78.4435 179.93C76.6082 177.931 75.8872 175.603 75.614 173.357L77.0761 173.37C76.5244 175.886 75.8817 178.498 74.1902 180.838C73.3308 182 72.1764 183.045 70.7926 183.886C69.4143 184.73 67.7447 185.348 65.9785 185.547Z" fill="#FAF6DF"/>
<path d="M14.9907 180.863C18.4356 180.086 21.0266 178.208 22.8783 176.131C24.73 174.011 25.8134 171.6 26.9878 169.193C27.1407 168.879 27.6196 168.714 28.0584 168.824C28.4171 168.914 28.6374 169.163 28.6174 169.425L28.6156 169.444C28.5154 170.78 29.302 172.14 30.6312 173.127C31.9512 174.111 33.7811 174.771 35.6383 174.747C39.3763 174.721 42.8704 172.029 42.5772 169.237L42.5736 169.2C42.5481 168.954 42.8067 168.739 43.1508 168.719C43.3929 168.706 43.6133 168.795 43.7316 168.934C44.8423 170.245 46.0149 171.51 47.6627 172.407C49.2704 173.278 51.581 173.707 53.5601 173.02C52.6752 173.475 51.5282 173.663 50.4175 173.6C49.3032 173.547 48.2071 173.289 47.2293 172.874C45.2647 172.035 43.9319 170.684 42.6774 169.434L43.8336 169.132C44.1795 170.806 43.3547 172.532 41.8398 173.795C40.3504 175.066 38.12 175.986 35.6729 176.021C33.233 176.064 30.9134 175.245 29.3275 174.012C27.7343 172.789 26.7038 171.092 26.9386 169.352L28.5682 169.604C27.3246 171.992 25.9554 174.444 23.7978 176.578C21.6912 178.698 18.5594 180.448 14.9907 180.863Z" fill="#FAF6DF"/>
<path d="M15.7456 230.65C19.8205 229.277 23.1944 227.046 25.5778 224.4C27.9867 221.76 29.2903 218.645 29.3322 215.547C29.3358 215.235 29.6909 214.985 30.1261 214.988C30.4593 214.991 30.7433 215.141 30.8544 215.351L30.8598 215.362C31.6482 216.863 32.9464 218.237 34.607 219.29C36.2639 220.342 38.325 221.055 40.4699 221.153C42.5474 221.249 44.7159 220.677 46.3073 219.644C47.9077 218.633 48.9237 217.124 48.5978 215.653V215.647C48.5268 215.328 48.829 215.03 49.2733 214.98C49.6739 214.934 50.0508 215.107 50.1709 215.375C50.9302 217.041 51.9699 218.633 53.2681 220.093C54.5772 221.545 56.2596 222.835 58.3244 223.723C60.3655 224.595 62.8253 224.997 65.2469 224.883C67.6613 224.763 70.0938 224.03 71.6998 222.632C70.3251 224.161 67.8488 225.085 65.3216 225.346C62.7762 225.628 60.0905 225.309 57.7781 224.412C55.4803 223.526 53.5667 222.187 52.0664 220.682C50.546 219.177 49.4845 217.474 48.6324 215.75L50.2055 215.471C50.6698 217.41 49.3716 219.336 47.478 220.566C45.5844 221.809 43.0007 222.605 40.3333 222.439C37.7314 222.289 35.3317 221.404 33.4836 220.191C31.6246 218.973 30.228 217.435 29.3795 215.751L30.9072 215.566C30.807 218.918 29.0755 222.149 26.4244 224.816C23.7552 227.481 19.9935 229.587 15.7456 230.65Z" fill="#FAF6DF"/>
<path d="M98.1392 228.233C101.402 227.594 104.353 226.308 106.598 224.568C108.88 222.864 110.511 220.718 111.127 218.438C111.2 218.166 111.567 217.987 111.948 218.039C112.221 218.078 112.429 218.226 112.494 218.408L112.505 218.438C113.317 220.71 114.2 222.969 115.302 225.175C115.844 226.282 116.374 227.361 117.268 228.184C118.14 229.011 119.422 229.5 120.861 229.619C122.295 229.761 123.819 229.525 125.185 229.091C126.554 228.636 127.707 227.941 128.679 227.065C130.658 225.336 131.734 223.105 132.876 220.904L132.892 220.874C133.025 220.617 133.426 220.485 133.786 220.582C134.068 220.657 134.243 220.853 134.238 221.057C134.189 223.252 135.904 225.488 138.611 226.652C141.299 227.855 144.948 227.933 147.899 226.85C145.135 228.197 141.279 228.337 138.174 227.208C135.09 226.035 132.978 223.64 132.841 221.07L134.203 221.223C133.24 223.476 132.166 225.825 130.028 227.831C127.943 229.859 124.331 231.209 120.638 230.915C118.803 230.771 116.96 230.047 115.857 228.964C114.737 227.895 114.186 226.693 113.667 225.574C112.653 223.302 111.753 221 111.127 218.658L112.505 218.657C111.657 221.119 109.752 223.332 107.23 225.029C104.672 226.69 101.502 227.885 98.1392 228.233Z" fill="#FAF6DF"/>
<path d="M169.522 223.873C170.955 222.646 172.09 221.264 172.793 219.781C173.503 218.303 173.887 216.754 173.794 215.215C173.778 214.963 174.051 214.748 174.404 214.738C174.721 214.727 174.996 214.887 175.058 215.104L175.067 215.139C175.598 217.029 176.11 218.911 177.184 220.577C177.723 221.394 178.41 222.186 179.251 222.796C180.099 223.418 181.163 223.9 182.292 224.203C183.426 224.5 184.635 224.615 185.756 224.446C186.867 224.274 187.856 223.809 188.577 223.141C190.05 221.79 190.418 219.841 190.744 217.966L190.749 217.93C190.796 217.663 191.135 217.474 191.506 217.506C191.796 217.532 192.02 217.687 192.085 217.877C193.158 221.124 196.29 224.048 200.548 225.726C195.956 224.518 192.211 221.622 190.764 218.131L192.106 218.045C191.963 219.97 191.727 222.078 189.95 223.893C189.058 224.78 187.672 225.447 186.141 225.697C184.611 225.933 183.049 225.8 181.658 225.424C178.85 224.691 176.691 222.951 175.649 221.068C174.522 219.184 174.133 217.205 173.803 215.287L175.076 215.21C175.005 216.87 174.497 218.512 173.528 219.995C172.554 221.472 171.219 222.824 169.522 223.873Z" fill="#FAF6DF"/>
</svg>
