<svg width="221" height="290" viewBox="0 0 221 290" fill="none" xmlns="http://www.w3.org/2000/svg">
<path d="M125.812 285C125.812 287.761 123.573 290 120.812 290H93.0479C90.2864 290 88.0479 287.761 88.0479 285V220.252C88.0479 217.49 90.2864 215.252 93.0479 215.252H120.812C123.573 215.252 125.812 217.49 125.812 220.252V285Z" fill="#82564D"/>
<path d="M17.4592 207.473C5.17514 217.026 -3.98488 230.774 1.75282 243.274C7.76309 256.364 27.2113 262.864 44.9953 266.986C87.791 276.907 135.307 281.444 176.741 268.726C196.512 262.656 215.382 251.343 219.287 235.726C222.846 221.5 212.698 206.72 197.371 197.783C182.043 188.848 162.358 184.992 142.965 183.573C98.2549 180.301 50.5952 181.707 17.4592 207.473Z" fill="white"/>
<path d="M24.989 147.528C13.7044 157.89 5.29093 172.801 10.5622 186.361C16.0819 200.559 33.9491 207.61 50.2839 212.081C89.5983 222.841 133.247 227.763 171.309 213.968C189.471 207.384 206.805 195.114 210.394 178.174C213.662 162.745 204.34 146.709 190.26 137.016C176.18 127.325 158.098 123.144 140.282 121.604C99.2126 118.056 55.4295 119.579 24.989 147.528Z" fill="#D3D5D6"/>
<path d="M36.6277 95.6668C26.8877 104.608 19.6251 117.479 24.1755 129.182C28.9411 141.436 44.3612 147.521 58.4609 151.381C92.3919 160.669 130.065 164.917 162.915 153.01C178.592 147.327 193.553 136.736 196.65 122.117C199.47 108.799 191.426 94.9593 179.272 86.5939C167.12 78.2285 151.513 74.6206 136.136 73.2919C100.689 70.2282 62.9008 71.5436 36.6277 95.6668Z" fill="white"/>
<path d="M53.3263 56.2759C45.8033 63.1825 40.1943 73.1235 43.7075 82.1633C47.3887 91.6304 59.2988 96.3295 70.1896 99.3109C96.3992 106.484 125.498 109.766 150.873 100.568C162.982 96.1808 174.539 87.9986 176.93 76.7062C179.107 66.4201 172.894 55.7304 163.507 49.2685C154.12 42.8079 142.066 40.019 130.188 38.9916C102.808 36.6261 73.6195 37.6429 53.3263 56.2759Z" fill="#D3D5D6"/>
<path d="M65.5285 14.2873C59.6258 19.7072 55.2222 27.5084 57.9812 34.6021C60.869 42.029 70.2153 45.7179 78.7605 48.0569C99.3278 53.6864 122.162 56.2603 142.074 49.0445C151.576 45.5998 160.645 39.1804 162.521 30.3185C164.231 22.2465 159.355 13.8585 151.989 8.78779C144.621 3.71705 135.162 1.53079 125.842 0.723719C104.357 -1.13201 81.4529 -0.334237 65.5285 14.2873Z" fill="white"/>
<path d="M56.75 25.2307C60.7553 23.8276 65.6011 24.478 68.9447 26.8647C72.5275 29.424 74.1342 33.4939 76.7812 36.8164C77.8367 38.1425 79.1541 39.4115 80.9031 39.9265C83.7985 40.7801 87.0013 39.2801 88.9365 37.2066C90.8703 35.1359 91.9227 32.554 93.4068 30.2125C94.8908 27.8722 97.0759 25.6143 100.064 25.0541C103.615 24.3878 107.188 26.3537 109.464 28.8346C111.74 31.3156 113.147 34.3235 115.251 36.9199C117.236 39.373 120.463 41.6004 123.806 40.9155C126.612 40.3407 128.369 37.962 129.774 35.7584C131.18 33.5509 132.532 31.3156 133.825 29.055C134.841 27.2775 135.857 25.4444 137.502 24.0758C139.148 22.7072 141.595 21.8842 143.729 22.5639C147.366 23.724 147.934 28.151 150.888 30.3452C153.422 32.2262 157.68 31.9102 159.818 29.6842C161.031 28.4218 161.728 26.6019 163.498 26.0377" stroke="#AFB2B4" stroke-width="1.33333" stroke-miterlimit="10" stroke-linecap="round" stroke-linejoin="round"/>
<path d="M42.6694 70.7752C46.855 68.3633 52.9076 68.8359 56.5374 71.8571C59.3586 74.2066 60.5806 77.6313 62.5992 80.545C64.6178 83.4614 68.299 86.1189 72.056 85.2348C73.322 84.9375 74.438 84.2591 75.3814 83.464C79.408 80.0658 80.9783 74.2769 86.1966 72.5221C90.0581 71.2252 94.4995 72.8115 97.5539 75.2539C100.611 77.6964 102.706 80.9048 105.304 83.7255C108.092 86.7507 112.343 89.5449 116.613 88.4896C118.382 88.0529 119.87 86.9989 121.121 85.8175C123.723 83.3565 125.459 80.2981 127.738 77.5995C130.018 74.9008 133.137 72.4398 136.942 72.0641C144.727 71.2942 151.469 79.361 159.038 77.5955C163.222 76.6185 165.723 72.9986 168.125 69.8407C170.528 66.6828 174.004 63.3948 178.318 63.7213" stroke="#AFB2B4" stroke-width="1.33333" stroke-miterlimit="10" stroke-linecap="round" stroke-linejoin="round"/>
<path d="M23.3701 117.868C28.8943 114.97 36.5037 115.542 41.3843 119.222C45.6925 122.468 47.6883 127.554 51.8163 130.974C52.5023 131.543 53.2731 132.075 54.1892 132.278C55.7898 132.635 57.4647 131.906 58.6943 130.94C62.0515 128.301 63.4961 123.78 67.6484 122.243C71.6582 120.757 76.3147 122.889 79.1737 125.766C82.0312 128.642 83.8226 132.243 86.7225 135.089C89.6209 137.934 94.3683 139.968 98.31 138.355C100.35 137.52 101.776 135.875 103.092 134.276C106.243 130.451 109.331 126.449 113.713 123.715C118.097 120.98 124.18 119.763 128.896 122.036C133.92 124.457 136.542 130.292 142.158 131.305C146.862 132.153 151.338 129.083 154.154 125.675C156.974 122.268 159.02 118.25 162.785 115.639C167.842 112.134 175.63 112.083 180.749 115.521C182.699 116.832 184.955 118.699 187.21 117.841C188.04 117.526 188.641 116.887 189.209 116.268C191.711 113.543 194.211 110.818 196.714 108.094" stroke="#AFB2B4" stroke-width="1.33333" stroke-miterlimit="10" stroke-linecap="round" stroke-linejoin="round"/>
<path d="M12.1416 163.189C17.051 164.394 20.3219 168.489 22.2223 172.639C24.1213 176.787 25.0904 181.275 27.5572 185.188C28.8686 187.268 31.1279 189.358 33.8143 189.023C35.2938 188.837 36.528 187.935 37.5168 186.95C39.5717 184.906 40.9361 182.397 42.8668 180.26C44.7961 178.124 47.6127 176.288 50.7155 176.466C52.2979 176.555 53.788 177.165 55.1054 177.937C61.3686 181.606 63.8657 188.478 68.2769 193.831C69.4807 195.295 70.9208 196.706 72.8364 197.369C77.7625 199.073 82.8339 195.182 85.7201 191.289C88.6064 187.396 91.4518 182.703 96.6216 181.695C102.32 180.583 107.653 184.691 110.656 189.079C113.29 192.928 115.973 197.84 121.079 198.174C126.403 198.525 129.917 193.612 132.47 189.5C134.894 185.594 137.702 181.693 141.898 179.196C146.094 176.698 152.006 175.936 156.193 178.445C160.069 180.769 161.987 185.468 166.484 186.656C170.704 187.771 175.117 185.087 177.493 181.834C179.87 178.579 180.973 174.719 183.266 171.418C185.56 168.118 189.774 165.281 194.072 166.144C195.951 166.521 197.564 167.554 199.364 168.159C203.977 169.711 209.719 168.001 212.299 164.308" stroke="#AFB2B4" stroke-width="1.33333" stroke-miterlimit="10" stroke-linecap="round" stroke-linejoin="round"/>
<path d="M4.02734 222.999C9.95282 223.165 15.6072 226.54 17.9574 231.312C20.0381 235.532 20.3546 241.309 25.2231 243.02C28.7923 244.274 32.7779 242.392 35.6733 240.175C38.5686 237.958 41.2535 235.234 44.9711 234.374C48.7432 233.502 52.8394 234.824 55.7923 237.061C58.7437 239.298 60.7305 242.34 62.4719 245.401C64.5026 248.974 66.9467 253.137 71.4381 253.798C77.3303 254.666 81.4037 249.077 85.9694 245.7C93.2335 240.328 105.045 240.512 112.084 246.109C115.612 248.912 118.545 253.08 123.294 253.393C126.029 253.574 128.635 252.339 130.793 250.853C135.492 247.619 138.946 243.044 144.072 240.354C150.644 236.911 159.554 237.285 165.72 241.262C169.37 243.616 173.231 247.326 177.506 246.005C178.804 245.603 179.864 244.764 180.803 243.88C186.658 238.364 189.095 230.543 195.084 225.135C196.037 224.276 197.118 223.463 198.431 223.123C200.695 222.535 203.096 223.472 205.081 224.592C207.068 225.711 208.991 227.071 211.31 227.454C213.63 227.839 219.104 225.365 219.407 223.313" stroke="#AFB2B4" stroke-width="1.33333" stroke-miterlimit="10" stroke-linecap="round" stroke-linejoin="round"/>
</svg>
