<svg width="220" height="290" viewBox="0 0 220 290" fill="none" xmlns="http://www.w3.org/2000/svg">
<path d="M136.011 285C136.011 287.761 133.773 290 131.011 290H102.852C100.09 290 97.8516 287.761 97.8516 285V214.579C97.8516 211.818 100.09 209.579 102.852 209.579H131.011C133.773 209.579 136.011 211.818 136.011 214.579V285Z" fill="#82564D"/>
<path d="M36.6173 171.07C27.3291 184.777 18.0393 198.483 8.75115 212.192C2.85995 220.883 -3.18579 231.757 1.92042 240.872C5.59286 247.427 13.7747 250.412 21.3522 252.573C75.6522 268.065 134.777 268.484 189.32 253.762C202.881 250.103 218.383 243.057 219.887 229.956C220.935 220.823 214.498 212.573 208.405 205.358C200.881 196.451 193.357 187.545 185.831 178.637" fill="#D3D5D6"/>
<path d="M51.988 118.402C44.9292 132.707 35.5401 146.007 24.2412 157.707C18.1924 163.966 11.1046 171.024 12.0977 179.403C13.3188 189.721 25.7469 195.021 36.4811 197.732C76.5918 207.857 119.082 209.684 160.02 203.042C173.515 200.851 187.429 197.479 197.681 189C207.933 180.521 213.22 165.591 206.347 154.532C203.129 149.355 197.802 145.692 193.221 141.506C183.102 132.258 176.317 119.886 174.199 106.819" fill="white"/>
<path d="M64.1558 62.4912C53.1232 73.5365 42.0906 84.5833 31.0595 95.6286C28.7138 97.9779 26.3251 100.384 24.9189 103.316C21.2572 110.954 25.4254 120.29 32.3235 125.634C39.2215 130.98 48.2205 133.217 56.9471 135.133C89.6808 142.312 124.269 146.916 156.666 138.52C168.002 135.584 179.158 130.897 187.279 122.955C195.401 115.01 200.008 103.359 196.925 92.7637C191.979 75.7844 170.36 67.3726 163.207 51.0932" fill="#D3D5D6"/>
<path d="M68.2817 34.8613C58.3187 40.0254 47.2325 47.0462 46.0374 57.6245C44.8821 67.8401 54.5636 76.3061 64.3858 80.9405C78.8751 87.777 95.3108 90.2734 111.535 90.8261C123.52 91.2346 135.758 90.5905 147.005 86.7116C158.255 82.8314 168.486 75.3579 173.22 65.0752C176.184 58.6399 176.677 50.668 172.228 45.0268C165.519 36.5179 150.673 35.9852 136.884 20.1142C132.271 14.8043 127.232 0.809887 115.375 0.0415427C97.5923 -1.11097 93.1073 21.9951 68.2817 34.8613Z" fill="white"/>
<path d="M53.5317 43.8416C68.9468 60.7809 93.826 68.7042 117.613 67.6546C127.617 67.2118 137.695 65.2724 146.472 60.7709C155.252 56.2708 162.652 49.0301 165.793 40.1541" stroke="#AFB2B4" stroke-width="1.33333" stroke-miterlimit="10" stroke-linecap="round" stroke-linejoin="round"/>
<path d="M80.9521 25.5824C89.0912 31.6592 99.7336 34.7354 110.13 34.0156C120.524 33.2958 130.565 28.7886 137.656 21.6578" stroke="#AFB2B4" stroke-width="1.33333" stroke-miterlimit="10" stroke-linecap="round" stroke-linejoin="round"/>
<path d="M34.3608 94.1154C53.5294 109.695 78.7514 118.642 104.168 118.884C129.586 119.124 154.994 110.655 174.499 95.4407C180.274 90.9349 185.713 85.6122 188.061 78.937" stroke="#AFB2B4" stroke-width="1.33333" stroke-miterlimit="10" stroke-linecap="round" stroke-linejoin="round"/>
<path d="M36.4185 143.215C54.7699 154.158 77.0172 158.055 98.7825 158.746C129.955 159.737 162.862 153.892 186.604 135.013" stroke="#AFB2B4" stroke-width="1.33333" stroke-miterlimit="10" stroke-linecap="round" stroke-linejoin="round"/>
<path d="M206.228 154.202C200.409 162.85 190.99 168.832 181.294 173.562C155.732 186.03 126.412 191.42 97.6173 189.88C68.8223 188.341 40.5936 179.976 15.5889 166.557" stroke="#AFB2B4" stroke-width="1.33333" stroke-miterlimit="10" stroke-linecap="round" stroke-linejoin="round"/>
<path d="M8.17578 216.557C58.0306 241.213 119.057 245.331 172.194 227.632C180.344 224.917 188.344 221.701 195.631 217.348C200.627 214.362 205.263 210.854 209.427 206.91" stroke="#AFB2B4" stroke-width="1.33333" stroke-miterlimit="10" stroke-linecap="round" stroke-linejoin="round"/>
</svg>
