<svg width="220" height="290" viewBox="0 0 220 290" fill="none" xmlns="http://www.w3.org/2000/svg">
<path d="M121.838 285C121.838 287.761 119.599 290 116.838 290H93.209C90.4476 290 88.209 287.761 88.209 285V213.583C88.209 210.821 90.4476 208.583 93.209 208.583H116.838C119.599 208.583 121.838 210.821 121.838 213.583V285Z" fill="#82564D"/>
<path d="M39.6472 132.756C28.3032 157.263 16.9579 181.772 5.61257 206.282C3.3187 211.237 0.968185 216.387 0.210303 222.318C-0.54758 228.25 0.73084 235.218 4.24245 238.141C7.96848 241.24 12.6911 238.818 16.1865 235.163C19.6806 231.506 22.6825 226.629 26.6148 224.178C23.7613 235.553 22.0379 247.567 21.5241 259.7C21.4243 262.022 21.4701 264.711 22.6663 266.188C23.8206 267.613 25.5211 267.243 26.9573 266.623C37.3722 262.125 45.0697 249.209 52.167 236.886C50.7713 244.357 49.3661 252.205 50.4962 259.778C51.6263 267.349 56.2194 274.358 61.3277 273.306C64.1098 272.733 66.4616 269.976 68.5168 267.097C73.0102 260.805 76.8211 253.409 79.7569 245.295C80.384 251.405 81.7366 261.885 84.2247 266.804C86.7114 271.721 91.5945 274.488 95.0481 271.145C97.0938 269.166 98.174 265.604 99.0411 262.183C101.13 253.937 102.608 245.34 103.437 236.604C104.063 240.479 104.687 244.352 105.315 248.226C107.023 258.801 109.391 270.671 115.876 275.483C117.925 277.003 120.335 277.64 122.525 276.664C125.227 275.46 127.226 272.032 128.756 268.468C133.158 258.212 134.88 245.425 133.482 233.399C136.179 243.816 140.141 256.396 145.462 264.198C147.432 267.086 149.835 269.896 152.584 269.737C155.422 269.574 157.815 266.125 158.871 262.158C159.928 258.191 159.904 253.776 159.759 249.507C159.51 241.996 158.945 234.508 158.07 227.103C161.136 236.353 165.421 244.684 170.598 251.472C173.384 255.123 176.604 258.438 180.275 259.042C181.445 259.235 182.74 259.081 183.619 257.9C184.6 256.581 184.775 254.401 184.83 252.423C185.169 240.187 183.312 227.828 179.506 217.003C186.664 230.861 196.856 237.717 208.256 241.412C210.393 242.106 212.664 242.575 214.731 241.508C219.058 239.276 220.811 230.923 219.651 224.265C218.493 217.606 215.245 212.298 212.111 207.285C192.873 176.526 173.635 145.77 154.399 115.012" fill="white"/>
<path d="M61.1276 84.3694C48.9812 101.166 37.3797 118.857 26.3783 137.355C23.6502 141.943 20.8681 146.839 19.9295 152.833C18.9923 158.825 20.5714 166.183 24.408 168.32C26.9109 169.714 29.7105 168.632 32.2026 167.188C38.0769 163.784 43.4347 158.38 47.7594 151.494C43.9498 161.928 41.4442 173.435 40.4153 185.239C40.1982 187.719 40.0849 190.45 41.0262 192.51C42.4408 195.606 45.4534 195.655 47.8929 194.866C60.1917 190.888 68.9491 174.959 76.5711 159.895C76.0897 169.491 76.3446 179.171 77.333 188.68C77.6324 191.582 78.0653 194.655 79.4341 196.748C82.0705 200.773 86.6286 199.129 89.8664 196.267C96.477 190.418 101.445 180.5 103.361 169.323C104.776 178.212 109.093 187.447 114.082 192.661C117.582 196.323 123.101 198.062 125.585 192.846C126.398 191.138 126.691 189.001 126.93 186.931C127.912 178.419 128.335 169.763 128.191 161.125C129.928 172.983 134.807 183.728 141.516 190.467C143.061 192.019 144.834 193.41 146.679 193.109C150.362 192.506 152.069 185.937 152.529 180.406C153.295 171.207 152.779 161.772 151.027 152.884C150.935 152.415 150.763 151.857 150.439 151.847C150.114 151.837 150.167 152.862 150.439 152.596C156.896 164.964 165.313 174.206 175.744 175.179C179.275 175.509 183.198 174.2 185.295 169.912C188.1 164.177 186.456 156.007 184.072 149.856C178.285 134.922 169.019 123.939 160.875 111.748C152.767 99.6057 145.631 85.9916 139.674 71.2931" fill="#D3D5D6"/>
<path d="M100.523 88.44C98.1318 95.9078 95.6613 103.546 91.6885 109.289C87.717 115.032 81.8643 118.573 76.6104 116.09C75.0043 115.331 73.4804 113.998 72.4461 111.999C70.7159 108.654 70.6013 104.005 71.0814 99.829C71.5628 95.6533 72.6039 88.1711 72.8345 83.9492C67.1814 94.6123 58.0274 100.847 48.9747 100.199C45.9391 99.9822 42.3884 98.3455 41.5172 93.9617C40.9751 91.2247 41.6952 88.2954 42.5637 85.7565C45.4051 77.4515 59.2088 65.4148 70.5028 49.3153C84.231 29.7471 96.0335 6.09012 102.62 0.159238C106.601 -3.42503 137.384 54.4885 152.328 74.2417C154.726 77.4125 157.274 80.6136 158.591 84.9902C159.909 89.3668 159.553 95.3208 156.899 97.9884C155.538 99.3547 153.828 99.6439 152.192 99.68C141.992 99.9114 131.925 91.083 127.024 77.6149C129.788 85.4933 131.326 94.3636 132.369 103.134C132.993 108.372 133.128 114.464 130.647 118.255C128.849 121.001 126.025 121.793 123.513 121.053C121.002 120.312 118.751 118.233 116.716 115.897C110.066 108.258 102.86 100.527 100.523 88.44Z" fill="white"/>
<path d="M99.6377 67.3297C100.281 65.6063 100.636 63.7903 100.95 61.9786C101.255 60.1612 101.449 58.325 101.592 56.4859C101.888 52.8105 102.031 49.1077 102.003 45.4309C102 45.1461 102.212 44.9162 102.476 44.9133C102.691 44.9104 102.873 45.0608 102.935 45.2675L102.942 45.2906C103.967 48.6985 105.249 52.0731 106.886 55.1701C107.718 56.7027 108.659 58.1862 109.826 59.3588C110.135 59.6205 110.427 59.9111 110.744 60.1511C111.083 60.3463 111.39 60.5863 111.746 60.754C112.454 61.0822 113.211 61.2716 113.861 61.1531C115.203 60.9564 115.83 59.2792 115.982 57.5919C116.144 55.8699 116.186 54.0221 116.179 52.2394C116.151 48.645 115.827 45.0506 115.212 41.5126C115.149 41.1656 115.359 40.8331 115.68 40.7666C115.955 40.7102 116.222 40.8678 116.334 41.1266C118.458 46.122 120.49 51.1998 123.755 55.3899C125.38 57.4633 127.295 59.298 129.476 60.6947C131.655 62.0813 134.135 62.9893 136.709 63.1238C134.128 63.2062 131.548 62.4196 129.252 61.1256C126.942 59.8345 124.885 58.0402 123.155 55.9437C119.687 51.7362 117.382 46.6483 115.254 41.6543L116.376 41.2712C117.042 44.8757 117.41 48.5453 117.474 52.222C117.496 54.0742 117.483 55.8685 117.32 57.7683C117.201 58.7168 117.01 59.7014 116.523 60.6311C116.055 61.5637 115.119 62.369 114.068 62.5208C111.986 62.7666 110.29 61.6244 108.976 60.3275C107.678 58.9886 106.712 57.4127 105.856 55.802C104.159 52.5604 102.956 49.1149 102.021 45.5682L102.961 45.4294C102.866 49.1597 102.654 52.8669 102.185 56.5567C101.95 58.3987 101.665 60.2364 101.267 62.048C100.874 63.8568 100.396 65.6598 99.6377 67.3297Z" fill="#AFB2B4"/>
<path d="M66.3706 72.5413C68.4757 71.7215 70.4311 70.5287 72.0965 68.9816C73.766 67.4476 75.1982 65.6243 76.2244 63.5654C76.3471 63.3153 76.6384 63.2213 76.8717 63.3543C77.0929 63.4801 77.1846 63.7679 77.0848 64.0108L77.074 64.0397C76.2514 66.0639 75.7673 68.2341 75.6297 70.4202C75.5623 71.5147 75.5866 72.615 75.7093 73.6994C75.828 74.7881 75.983 75.8769 76.4375 76.6721C76.8798 77.4731 77.5838 77.7565 78.3754 77.4413C79.1831 77.1275 79.9194 76.4191 80.6112 75.6021C81.9989 73.9987 83.102 72.1205 83.9017 70.105L83.9098 70.0848C84.0433 69.7479 84.406 69.5917 84.7189 69.7349C85.0075 69.865 85.1558 70.2062 85.0722 70.5214C84.611 72.3071 84.1916 74.0826 83.9125 75.8725C83.6428 77.6567 83.5726 79.4785 83.9071 81.2337C84.2456 82.9601 85.0641 84.6069 86.236 85.8937C87.4079 87.1718 89.0464 88.0538 90.7982 87.9569C89.0626 88.2866 87.2461 87.516 85.9124 86.2696C84.5517 85.0276 83.5632 83.3187 83.1155 81.4289C82.6664 79.5594 82.6543 77.6032 82.8498 75.7178C83.0359 73.8238 83.4702 71.9933 83.8761 70.1874L85.048 70.6024C84.2577 72.7972 83.0669 74.8199 81.5889 76.5636C80.8648 77.408 80.0233 78.3406 78.8163 78.8018C78.2203 79.036 77.4678 79.0838 76.807 78.8119C76.1354 78.5445 75.627 77.9791 75.3101 77.4022C74.6722 76.2253 74.5509 74.992 74.4282 73.8425C74.323 72.67 74.3257 71.4887 74.4268 70.3205C74.6089 67.9796 75.2305 65.6894 76.2069 63.6001L77.0565 64.0758C75.863 66.1839 74.3041 68.0403 72.4674 69.4833C70.628 70.9133 68.5579 71.9991 66.3706 72.5413Z" fill="#AFB2B4"/>
<path d="M129.4 141.788C130.598 139.387 131.414 136.787 131.795 134.122C132.169 131.459 132.135 128.742 131.675 126.12C131.635 125.885 131.779 125.66 131.998 125.615C132.212 125.573 132.418 125.722 132.464 125.948L132.467 125.962C133.242 129.798 135.025 133.373 137.489 136.213C138.695 137.591 140.221 138.771 141.858 139.041C142.666 139.181 143.482 139.017 144.168 138.605C144.859 138.185 145.414 137.494 145.803 136.703C146.601 135.108 146.612 133.168 146.353 131.263C146.078 129.341 145.712 127.362 145.312 125.431C144.499 121.554 143.467 117.728 142.22 113.983C142.109 113.656 142.266 113.295 142.57 113.176C142.858 113.064 143.178 113.214 143.307 113.507C145.222 118.062 147.29 122.615 150.533 126.196C152.142 127.963 154.015 129.487 156.11 130.566C158.201 131.637 160.53 132.24 162.886 132.139C160.542 132.448 158.127 131.975 155.93 130.999C153.725 130.025 151.704 128.572 149.989 126.779C146.55 123.185 144.186 118.619 142.237 114.028L143.323 113.554C144.624 117.332 145.712 121.196 146.575 125.119C146.995 127.091 147.41 129.032 147.68 131.07C147.929 133.084 147.935 135.373 146.927 137.348C146.439 138.315 145.726 139.203 144.781 139.767C143.838 140.325 142.711 140.52 141.678 140.327C139.593 139.938 137.958 138.564 136.642 137.05C134.076 133.973 132.371 130.142 131.678 126.13L132.468 125.972C132.878 128.712 132.797 131.521 132.259 134.213C131.732 136.906 130.777 139.497 129.4 141.788Z" fill="#AFB2B4"/>
<path d="M85.2134 137.067C86.8155 135.417 88.0278 133.419 88.9556 131.295C89.8942 129.168 90.644 126.954 91.3574 124.709C91.441 124.446 91.708 124.306 91.9534 124.395C92.1503 124.468 92.273 124.666 92.2703 124.877V124.906C92.2393 127.695 92.4146 130.478 92.7868 133.228C92.9931 134.597 93.1968 135.988 93.5582 137.255C93.9223 138.52 94.4941 139.711 95.3828 140.408C96.2714 141.104 97.4245 141.234 98.5114 140.811C99.5916 140.398 100.565 139.541 101.192 138.488C102.488 136.3 102.548 133.433 102.596 130.657L103.66 130.653C103.606 133.361 103.989 136.185 105.456 138.395C106.164 139.487 107.176 140.383 108.342 140.921C109.506 141.452 110.856 141.625 112.109 141.19C110.91 141.783 109.476 141.76 108.213 141.29C106.94 140.829 105.781 139.977 104.913 138.834C103.206 136.507 102.669 133.493 102.596 130.656C102.588 130.342 102.819 130.079 103.111 130.07C103.407 130.062 103.651 130.31 103.66 130.625V130.627V130.651C103.728 133.433 103.775 136.512 102.285 139.228C101.505 140.55 100.352 141.595 98.9604 142.15C97.5917 142.724 95.821 142.588 94.5885 141.562C93.3438 140.553 92.7099 139.066 92.3121 137.665C91.9089 136.232 91.739 134.82 91.5623 133.407C91.2238 130.573 91.147 127.706 91.3277 124.865L92.242 125.06C91.4113 127.262 90.5914 129.501 89.4734 131.584C88.3595 133.657 86.9948 135.631 85.2134 137.067Z" fill="#AFB2B4"/>
<path d="M37.0635 141.481C37.7512 141.843 38.5401 141.728 39.2117 141.439C39.8995 141.154 40.5225 140.72 41.1307 140.259C42.3511 139.329 43.5594 138.381 44.6774 137.34C45.8047 136.313 46.8607 135.194 47.6873 133.919C48.5342 132.656 49.0938 131.216 49.3164 129.729L50.3709 129.928C49.9758 132.62 49.2489 135.216 49.4067 137.77C49.4701 139.05 49.7735 140.228 50.4087 141.267C51.0142 142.3 51.9042 143.156 52.9048 143.574C53.9082 143.996 54.987 143.888 55.9242 143.257C56.8669 142.642 57.68 141.631 58.4379 140.616C59.9375 138.564 61.0581 136.192 61.7216 133.677L61.7257 133.663C61.8133 133.335 62.1302 133.144 62.4337 133.238C62.6899 133.316 62.8557 133.566 62.8517 133.838C62.8005 137.588 61.727 141.073 61.6947 144.621C61.6893 146.369 61.9455 148.153 62.6238 149.77C63.29 151.373 64.4255 152.823 65.9992 153.527C64.3594 153.007 63.0499 151.591 62.253 149.966C61.4465 148.332 61.0069 146.489 60.961 144.628C60.8653 140.921 61.7648 137.344 61.7027 133.841L62.8315 134.001C62.1612 136.683 61.0055 139.224 59.4331 141.44C58.6388 142.527 57.8122 143.628 56.6147 144.455C55.4455 145.3 53.7477 145.54 52.4207 144.904C49.7641 143.694 48.2281 140.711 48.1863 137.841C48.0784 134.974 48.8241 132.311 49.3177 129.721L49.3231 129.692C49.3824 129.38 49.6656 129.181 49.9556 129.244C50.2442 129.308 50.4316 129.61 50.3723 129.921C50.0567 131.597 49.3555 133.168 48.394 134.474C47.4527 135.801 46.3064 136.91 45.1075 137.908C43.8993 138.898 42.6154 139.751 41.3343 140.593C40.6884 141.012 40.0141 141.413 39.2805 141.653C38.5536 141.888 37.7121 141.916 37.0635 141.481Z" fill="#AFB2B4"/>
<path d="M113.573 170.061C113.788 167.786 113.904 165.513 113.804 163.249C113.751 160.987 113.518 158.735 113.11 156.528C113.052 156.216 113.24 155.912 113.532 155.85C113.812 155.791 114.083 155.977 114.156 156.268L114.164 156.304C114.662 158.344 115.124 160.38 116.04 162.122C116.485 162.978 117.042 163.833 117.693 164.376C118.368 164.948 119.147 165.154 119.635 164.762C120.172 164.382 120.496 163.402 120.759 162.419C121.026 161.44 121.212 160.438 121.337 159.426C121.587 157.397 121.502 155.33 121.162 153.307L121.154 153.266C121.105 152.97 121.289 152.685 121.565 152.632C121.816 152.584 122.06 152.743 122.138 152.998C122.719 154.88 123.963 156.53 125.527 157.681C127.078 158.871 128.997 159.536 130.967 159.514C129.01 159.857 126.944 159.332 125.18 158.266C123.431 157.167 121.97 155.46 121.182 153.378L122.157 153.068C122.668 155.182 122.789 157.397 122.594 159.578C122.501 160.669 122.293 161.748 122.022 162.806C121.724 163.804 121.504 165.044 120.397 165.949C119.842 166.377 119.082 166.496 118.465 166.337C117.836 166.192 117.325 165.866 116.877 165.494C115.981 164.71 115.414 163.765 114.903 162.78C113.946 160.776 113.499 158.636 113.115 156.562L114.171 156.339C114.461 158.635 114.566 160.948 114.49 163.253C114.368 165.553 114.101 167.842 113.573 170.061Z" fill="#AFB2B4"/>
<path d="M22.8667 209.568C24.9003 208.377 26.7343 206.835 28.2595 205.009C29.7739 203.175 31.0254 201.1 31.8804 198.852C31.968 198.619 32.2148 198.509 32.4306 198.601C32.5803 198.668 32.676 198.815 32.6908 198.977L32.6922 198.993C32.9619 201.921 32.3146 204.751 32.3861 207.454C32.3942 208.8 32.6598 210.086 33.2276 211.25C33.7805 212.395 34.6247 213.397 35.6644 213.813C36.7014 214.238 37.8827 214.017 38.8443 213.31C39.8247 212.617 40.6216 211.558 41.3108 210.439C42.7186 208.151 43.7894 205.617 44.4677 202.966L44.4704 202.956C44.5594 202.605 44.8992 202.395 45.2283 202.492C45.5196 202.577 45.7043 202.871 45.6827 203.179C45.5128 205.695 45.4778 208.222 45.5775 210.744C45.6423 212.006 45.6059 213.294 45.9969 214.313C46.3624 215.344 47.3158 215.924 48.3852 215.814C50.6022 215.632 52.3985 213.709 53.8805 211.824C55.372 209.873 56.5277 207.632 57.7198 205.43C56.7341 207.746 55.693 210.055 54.2945 212.163C53.5879 213.21 52.8125 214.212 51.8699 215.064C50.9083 215.908 49.7742 216.576 48.4607 216.741C47.8134 216.813 47.0974 216.741 46.4716 216.377C45.8486 216.021 45.3483 215.421 45.0745 214.753C44.5243 213.401 44.5378 212.068 44.4367 210.804C44.3018 208.238 44.3059 205.661 44.4475 203.092L45.6625 203.308C44.9842 206.104 43.8932 208.784 42.4354 211.225C41.6843 212.448 40.7808 213.625 39.5509 214.481C38.3493 215.357 36.6502 215.694 35.2167 215.065C33.7791 214.454 32.7906 213.173 32.1595 211.832C31.5149 210.488 31.2277 208.936 31.2385 207.469C31.252 204.529 32.0152 201.794 31.8467 199.068L32.6598 199.212C31.6794 201.522 30.312 203.633 28.6263 205.384C26.9501 207.141 25.0001 208.592 22.8667 209.568Z" fill="#AFB2B4"/>
<path d="M68.3236 226.392C68.0255 228.715 68.3438 231.107 69.2905 233.163C69.749 234.192 70.3855 235.107 71.2108 235.738C72.0253 236.381 73.0489 236.537 73.8283 235.999C74.6172 235.47 75.1634 234.459 75.7163 233.471C76.253 232.474 76.7533 231.456 77.1956 230.411C78.0803 228.319 78.7249 226.114 79.1146 223.86C79.178 223.491 79.5084 223.248 79.8523 223.316C80.1827 223.383 80.4038 223.718 80.3647 224.072C80.1247 226.172 79.9548 228.294 80.7194 230.005C81.0929 230.858 81.6836 231.598 82.4172 231.978C83.1508 232.359 84.0139 232.362 84.7987 231.987C85.593 231.631 86.2929 230.961 86.8458 230.184C87.4014 229.398 87.7669 228.5 88.0312 227.499C88.5801 225.527 88.7958 223.339 89.5551 221.249L89.5632 221.23C89.6508 220.986 89.9097 220.864 90.1376 220.96C90.2873 221.022 90.3871 221.163 90.4127 221.322C90.7661 223.514 91.3581 225.698 92.6769 227.383C93.3323 228.202 94.2129 228.841 95.1933 229.182C96.1656 229.516 97.2714 229.558 98.2451 229.084C97.3267 229.666 96.1656 229.773 95.1124 229.492C94.0538 229.215 93.0653 228.62 92.2778 227.778C90.6878 226.087 90.0109 223.725 89.5362 221.51L90.3939 221.583C89.7627 223.533 89.6818 225.682 89.1384 227.836C88.6354 229.99 87.3812 232.185 85.295 233.21C84.262 233.734 82.9485 233.781 81.8657 233.229C80.7801 232.684 80.0033 231.696 79.5138 230.625C78.5253 228.381 78.8638 225.998 79.1079 223.905L80.358 224.117C79.9157 226.473 79.2077 228.767 78.2529 230.936C77.7836 232.025 77.2334 233.071 76.6212 234.072C76.0062 235.036 75.4034 236.148 74.2828 236.844C73.7299 237.178 73.0462 237.315 72.4191 237.201C71.7893 237.087 71.2256 236.783 70.7617 236.39C69.8232 235.613 69.1745 234.53 68.7807 233.404C67.9514 231.166 67.7774 228.672 68.3236 226.392Z" fill="#AFB2B4"/>
<path d="M108.835 201.812C109.279 204.415 110.047 206.942 111.183 209.258C111.756 210.408 112.367 211.569 113.161 212.473C113.953 213.381 115.041 213.878 116.17 213.808C118.449 213.68 120.521 211.923 121.386 209.659C122.361 207.382 122.516 204.75 122.649 202.133C122.668 201.767 122.961 201.485 123.303 201.506C123.628 201.526 123.882 201.811 123.887 202.156V202.168C123.922 204.538 124.502 206.897 125.564 208.969C126.103 210.02 126.7 210.943 127.524 211.661C128.324 212.373 129.314 212.886 130.211 212.799C131.114 212.728 131.82 211.979 132.225 210.936C132.635 209.896 132.928 208.658 133.211 207.492C133.755 205.119 134.105 202.697 134.295 200.259L134.298 200.235C134.321 199.933 134.568 199.71 134.848 199.735C135.105 199.758 135.302 199.98 135.316 200.249C135.489 203.495 136.124 206.798 137.848 209.481C138.689 210.813 139.829 211.949 141.166 212.733C142.497 213.509 144.044 213.939 145.596 213.764C144.066 214.092 142.433 213.794 141.006 213.07C139.572 212.351 138.305 211.246 137.322 209.889C135.374 207.133 134.599 203.672 134.297 200.335L135.318 200.323C135.237 202.836 134.906 205.339 134.368 207.791C134.081 209.021 133.829 210.208 133.357 211.463C133.109 212.082 132.774 212.715 132.254 213.229C131.737 213.741 131.054 214.088 130.34 214.163C128.896 214.302 127.662 213.587 126.687 212.762C125.69 211.932 124.939 210.777 124.394 209.644C123.256 207.353 122.656 204.769 122.648 202.177L123.886 202.211C123.713 204.838 123.546 207.622 122.422 210.178C121.34 212.75 118.879 214.705 116.183 214.74C114.833 214.779 113.473 214.072 112.628 213.002C111.757 211.942 111.229 210.714 110.711 209.503C109.699 207.059 109.048 204.451 108.835 201.812Z" fill="#AFB2B4"/>
<path d="M167.925 212.336C169.381 205.848 169.392 199.045 167.89 192.666C167.821 192.371 167.985 192.075 168.259 192.003C168.521 191.93 168.789 192.092 168.869 192.366L168.877 192.392C169.617 194.92 171.016 197.216 172.874 198.953C173.808 199.812 174.844 200.549 175.962 201.087C177.06 201.651 178.306 202.015 178.954 201.402C179.123 201.258 179.247 201.073 179.294 200.903C179.32 200.818 179.329 200.739 179.321 200.66L179.27 200.179L179.027 198.136C178.87 196.774 178.691 195.416 178.488 194.06C178.082 191.351 177.586 188.656 176.999 185.984L176.998 185.975C176.921 185.629 177.12 185.284 177.444 185.201C177.739 185.128 178.037 185.304 178.141 185.603C178.884 187.73 180.036 189.679 181.424 191.406C182.819 193.13 184.523 194.578 186.417 195.646C187.367 196.157 188.359 196.705 189.349 196.786C190.336 196.898 191.292 196.313 191.809 195.338C192.347 194.38 192.591 193.217 192.724 192.068C192.757 191.78 192.782 191.489 192.799 191.197C192.853 190.889 192.782 190.678 192.658 190.391C192.541 190.13 192.483 189.749 192.703 189.504C192.986 189.143 193.335 189.895 192.958 189.89C193.13 189.924 193.12 189.676 193.052 189.578C192.989 189.436 192.834 189.449 192.753 189.558C192.592 189.775 192.653 190.088 192.786 190.326C192.924 190.554 193.051 190.918 193.012 191.206C193.013 191.501 193.004 191.797 192.987 192.094C192.919 193.274 192.753 194.482 192.221 195.59C191.732 196.707 190.559 197.594 189.317 197.516C188.095 197.452 187.071 196.908 186.055 196.423C184.028 195.387 182.179 193.94 180.635 192.178C179.073 190.425 177.857 188.324 177.021 186.062L178.166 185.68C178.791 188.375 179.325 191.095 179.77 193.832C179.993 195.199 180.191 196.574 180.365 197.951L180.586 200.02L180.635 200.568C180.652 200.834 180.616 201.103 180.539 201.344C180.383 201.833 180.093 202.213 179.757 202.494C179.074 203.087 178.135 203.185 177.421 203.037C176.673 202.902 176.048 202.599 175.437 202.301C174.213 201.691 173.09 200.867 172.082 199.917C170.078 198.002 168.571 195.479 167.895 192.689L168.882 192.416C170.223 199.028 169.912 205.997 167.925 212.336Z" fill="#AFB2B4"/>
</svg>
