<svg width="220" height="290" viewBox="0 0 220 290" fill="none" xmlns="http://www.w3.org/2000/svg">
<path d="M134.529 285C134.529 287.761 132.29 290 129.529 290H97.2983C94.5369 290 92.2983 287.761 92.2983 285V214.789C92.2983 212.028 94.5369 209.789 97.2983 209.789H129.529C132.29 209.789 134.529 212.028 134.529 214.789V285Z" fill="#82564D"/>
<path d="M106.298 241.064C95.87 254.844 76.2771 258.17 59.1684 255.831C35.628 252.616 13.7066 235.549 0 216.118C43.4009 215.741 86.1464 194.364 112.515 159.852C126.687 175.024 143.471 189.503 160.933 200.722C178.396 211.942 199.565 218.787 220 215.185C201.471 239.155 167.057 256.616 136.851 254.558C127.06 253.891 113.585 247.646 106.298 241.064Z" fill="#458754"/>
<path d="M106.538 196.341C96.7873 209.227 78.4644 212.336 62.4666 210.151C40.452 207.144 19.9531 191.183 7.13721 173.014C47.7236 172.66 87.6919 152.671 112.352 120.398C125.606 134.585 141.299 148.124 157.63 158.616C173.958 169.107 193.756 175.51 212.865 172.141C195.538 194.556 163.356 210.884 135.11 208.96C125.953 208.336 113.352 202.496 106.538 196.341Z" fill="#366149"/>
<path d="M106.925 149.694C98.2631 161.14 81.9875 163.902 67.7763 161.961C48.2206 159.289 30.0128 145.111 18.6279 128.973C54.6793 128.658 90.1837 110.904 112.09 82.2347C123.863 94.8365 137.803 106.864 152.309 116.184C166.813 125.503 184.399 131.191 201.373 128.198C185.983 148.108 157.396 162.612 132.304 160.903C124.171 160.348 112.977 155.162 106.925 149.694Z" fill="#458754"/>
<path d="M107.147 104.519C99.1081 115.142 84.0028 117.706 70.811 115.903C52.6625 113.424 35.7638 100.267 25.1968 85.286C58.6572 84.9954 91.6096 68.5163 111.939 41.9081C122.865 53.6041 135.805 64.7672 149.267 73.4163C162.73 82.0654 179.051 87.3443 194.805 84.5667C180.52 103.047 153.989 116.508 130.701 114.921C123.151 114.407 112.764 109.594 107.147 104.519Z" fill="#366149"/>
<path d="M107.463 55.6835C100.311 65.1316 86.8792 67.4107 75.1471 65.8082C59.0071 63.6047 43.9779 51.9016 34.5811 38.579C64.338 38.3198 93.6444 23.6639 111.725 2.34435e-06C121.442 10.4025 132.951 20.3308 144.923 28.0226C156.896 35.7145 171.412 40.4094 185.421 37.9395C172.717 54.3744 149.121 66.3453 128.411 64.9351C121.696 64.4778 112.458 60.196 107.463 55.6835Z" fill="#458754"/>
<path d="M64.0259 43.4284C65.5364 44.1107 66.6422 45.0622 67.6566 46.0807C68.6269 47.1262 69.5007 48.2387 69.9681 49.6261C68.4559 48.9481 67.3484 47.9937 66.3374 46.9738C65.3705 45.9269 64.495 44.8158 64.0259 43.4284Z" fill="#FAF6DF"/>
<path d="M87.8611 35.0599C88.7095 36.3191 89.0431 37.6296 89.2565 38.9515C89.4191 40.279 89.4546 41.618 88.972 43.0096C88.1202 41.7504 87.7866 40.44 87.5766 39.1181C87.4191 37.7906 87.3836 36.4502 87.8611 35.0599Z" fill="#FAF6DF"/>
<path d="M110.656 23.3681C112.123 24.1202 113.122 25.2298 113.906 26.4163C114.643 27.6214 115.181 28.9376 115.105 30.3834C113.925 29.3364 113.161 28.2239 112.411 27.0844C111.708 25.9263 111.034 24.7726 110.656 23.3681Z" fill="#FAF6DF"/>
<path d="M115.729 46.6945C117.391 47.3369 118.681 48.2799 119.885 49.2955C121.05 50.3424 122.122 51.4606 122.822 52.885C121.157 52.244 119.867 51.2996 118.666 50.284C117.504 49.2357 116.431 48.1161 115.729 46.6945Z" fill="#FAF6DF"/>
<path d="M141.831 41.1068C143.6 41.8019 145.002 42.8047 146.318 43.8787C147.597 44.9869 148.785 46.1692 149.608 47.6605C147.837 46.9654 146.433 45.9626 145.119 44.8858C143.844 43.7761 142.654 42.5953 141.831 41.1068Z" fill="#FAF6DF"/>
<path d="M141.787 87.4379C142.409 88.6772 142.722 89.7797 143.103 90.8993C143.444 92.0317 143.823 93.1157 144.018 94.4518C142.67 93.7025 141.886 92.5089 141.471 91.2668C141.098 90.0176 141.068 88.6544 141.787 87.4379Z" fill="#FAF6DF"/>
<path d="M165.069 93.0328C165.341 94.2663 165.031 95.4073 164.544 96.4742C164.008 97.524 163.284 98.5225 162.061 99.2447C162.097 97.9926 162.506 96.9627 162.977 95.9372C163.494 94.9287 164.058 93.9515 165.069 93.0328Z" fill="#FAF6DF"/>
<path d="M114.547 72.4733C115.917 73.0715 116.87 73.9304 117.727 74.852C118.54 75.7993 119.255 76.8106 119.551 78.0841C118.181 77.4887 117.226 76.6297 116.372 75.7067C115.563 74.7566 114.848 73.7453 114.547 72.4733Z" fill="#FAF6DF"/>
<path d="M112.324 90.7112C113.853 91.3621 114.986 92.2937 116.029 93.2922C117.029 94.3178 117.935 95.4132 118.441 96.792C116.908 96.1425 115.774 95.2109 114.737 94.211C113.738 93.1811 112.834 92.0886 112.324 90.7112Z" fill="#FAF6DF"/>
<path d="M90.6411 83.2288C91.3101 84.3213 91.4574 85.411 91.4879 86.5035C91.4625 87.5932 91.3117 88.6857 90.6411 89.7769C89.9706 88.6857 89.8198 87.5932 89.7944 86.5035C89.8249 85.411 89.9722 84.3213 90.6411 83.2288Z" fill="#FAF6DF"/>
<path d="M66.7329 87.4379C68.2959 87.8823 69.5101 88.6473 70.6413 89.4848C71.737 90.358 72.748 91.3095 73.405 92.5815C71.8403 92.1414 70.6261 91.3779 69.4983 90.5346C68.4043 89.6614 67.395 88.7099 66.7329 87.4379Z" fill="#FAF6DF"/>
<path d="M52.2739 97.2629C53.9386 97.3783 55.3746 98.0777 56.5617 98.9608C57.7166 99.8739 58.6717 101.015 58.9528 102.401C57.5557 101.649 56.5126 100.828 55.4186 100.012C54.3568 99.1645 53.2934 98.364 52.2739 97.2629Z" fill="#FAF6DF"/>
<path d="M48.9814 139.315C50.2888 139.614 51.232 140.224 52.0906 140.905C52.9102 141.619 53.6418 142.406 54.0075 143.505C52.6968 143.208 51.7553 142.6 50.8984 141.916C50.0805 141.201 49.3489 140.414 48.9814 139.315Z" fill="#FAF6DF"/>
<path d="M73.3975 129.535C74.737 129.864 75.6887 130.65 76.3965 131.539C77.0654 132.449 77.5227 133.503 77.3177 134.667C76.2644 133.908 75.6209 133.123 74.974 132.308C74.3661 131.472 73.7836 130.653 73.3975 129.535Z" fill="#FAF6DF"/>
<path d="M98.377 124.387C99.1374 125.518 99.3812 126.679 99.5032 127.847C99.5726 129.016 99.5167 130.194 98.9409 131.402C98.1772 130.271 97.9334 129.109 97.8148 127.942C97.7488 126.771 97.8047 125.595 98.377 124.387Z" fill="#FAF6DF"/>
<path d="M79.5144 147.303C80.6558 147.892 81.3416 148.69 81.9225 149.535C82.4559 150.404 82.8793 151.321 82.8471 152.449C81.7006 151.861 81.0148 151.065 80.4373 150.217C79.9056 149.348 79.4822 148.429 79.5144 147.303Z" fill="#FAF6DF"/>
<path d="M116.259 119.212C117.72 119.873 118.774 120.803 119.732 121.796C120.648 122.816 121.463 123.903 121.869 125.257C120.404 124.596 119.353 123.668 118.398 122.673C117.485 121.651 116.669 120.564 116.259 119.212Z" fill="#FAF6DF"/>
<path d="M129.56 144.027C130.405 144.953 130.738 145.948 130.952 146.958C131.113 147.974 131.15 149.007 130.671 150.106C129.822 149.179 129.489 148.185 129.28 147.175C129.121 146.158 129.086 145.125 129.56 144.027Z" fill="#FAF6DF"/>
<path d="M143.954 124.401C145.144 125.626 145.844 126.987 146.428 128.383C146.961 129.793 147.376 131.236 147.298 132.816C146.105 131.594 145.403 130.231 144.824 128.835C144.293 127.425 143.878 125.982 143.954 124.401Z" fill="#FAF6DF"/>
<path d="M171.258 136.076C171.865 137.151 171.834 138.278 171.572 139.337C171.258 140.389 170.699 141.413 169.59 142.156C169.46 140.976 169.673 140.004 169.922 139.017C170.217 138.041 170.528 137.088 171.258 136.076Z" fill="#FAF6DF"/>
<path d="M151.244 142.623C151.911 143.324 152.06 144.026 152.09 144.728C152.063 145.429 151.914 146.13 151.244 146.832C150.573 146.13 150.422 145.429 150.397 144.728C150.426 144.026 150.575 143.324 151.244 142.623Z" fill="#FAF6DF"/>
<path d="M170.147 180.973C171.477 181.376 172.423 182.071 173.279 182.834C174.093 183.626 174.816 184.492 175.15 185.649C173.817 185.247 172.87 184.552 172.019 183.787C171.208 182.991 170.484 182.128 170.147 180.973Z" fill="#FAF6DF"/>
<path d="M142.349 172.085C143.754 172.966 144.716 174.071 145.575 175.227C146.389 176.407 147.094 177.64 147.351 179.1C145.942 178.223 144.98 177.118 144.125 175.96C143.314 174.779 142.609 173.544 142.349 172.085Z" fill="#FAF6DF"/>
<path d="M140.68 197.807C141.167 196.578 141.918 195.639 142.713 194.707C143.55 193.801 144.412 192.933 145.684 192.196C145.577 193.497 144.903 194.589 144.068 195.562C143.189 196.506 142.131 197.355 140.68 197.807Z" fill="#FAF6DF"/>
<path d="M119.551 182.375C120.926 182.658 121.952 183.267 122.897 183.949C123.808 184.667 124.634 185.463 125.11 186.584C123.735 186.302 122.707 185.694 121.766 185.009C120.856 184.289 120.03 183.494 119.551 182.375Z" fill="#FAF6DF"/>
<path d="M109.549 164.603C110.262 165.624 110.567 166.576 110.859 167.551C111.104 168.537 111.323 169.503 111.206 170.687C110.086 169.952 109.521 168.923 109.211 167.869C108.948 166.806 108.926 165.673 109.549 164.603Z" fill="#FAF6DF"/>
<path d="M86.1655 177.253C87.776 177.87 89.0122 178.783 90.1586 179.77C91.2678 180.784 92.2839 181.874 92.9223 183.264C91.3085 182.649 90.074 181.734 88.9292 180.747C87.8234 179.729 86.8056 178.64 86.1655 177.253Z" fill="#FAF6DF"/>
<path d="M77.2969 199.679C77.2969 198.665 77.7287 197.894 78.2604 197.179C78.8362 196.49 79.5187 195.858 80.6329 195.469C80.6363 196.484 80.2045 197.256 79.6694 197.969C79.0902 198.657 78.4078 199.289 77.2969 199.679Z" fill="#FAF6DF"/>
<path d="M58.4307 175.295C60.0513 175.35 61.4551 175.914 62.6998 176.632C63.9157 177.387 65.0079 178.32 65.5922 179.593C64.0732 179.133 62.8996 178.475 61.7176 177.792C60.5678 177.072 59.4433 176.351 58.4307 175.295Z" fill="#FAF6DF"/>
<path d="M38.3774 183.777C39.7068 184.181 40.6534 184.877 41.5086 185.64C42.3231 186.433 43.0462 187.298 43.3815 188.453C42.0488 188.053 41.1022 187.358 40.2487 186.593C39.4375 185.797 38.7144 184.934 38.3774 183.777Z" fill="#FAF6DF"/>
<path d="M56.1748 199.216C56.6032 198.168 57.1807 197.434 57.7751 196.676C58.4101 195.94 59.0299 195.233 60.0544 194.533C60.2881 195.635 59.836 196.646 59.1654 197.49C58.4542 198.31 57.4838 199.015 56.1748 199.216Z" fill="#FAF6DF"/>
<path d="M22.8379 224.448C24.3078 225.213 25.3543 226.231 26.306 227.31C27.212 228.412 28.0164 229.577 28.3957 230.998C26.9241 230.234 25.8742 229.216 24.9276 228.136C24.025 227.031 23.2223 225.867 22.8379 224.448Z" fill="#FAF6DF"/>
<path d="M48.9409 220.723C50.4701 221.374 51.603 222.305 52.6461 223.304C53.6453 224.329 54.5512 225.425 55.0559 226.804C53.525 226.154 52.3904 225.223 51.3524 224.223C50.3549 223.194 49.4506 222.1 48.9409 220.723Z" fill="#FAF6DF"/>
<path d="M43.3618 239.361C44.6742 238.521 45.9341 237.978 47.2008 237.384C48.4895 236.824 49.7257 236.248 51.2871 235.799C50.6317 237.085 49.3803 237.998 47.9967 238.639C46.5929 239.246 44.9977 239.616 43.3618 239.361Z" fill="#FAF6DF"/>
<path d="M64.54 240.346C65.8897 240.915 66.8922 241.528 67.9625 242.124C69.0073 242.749 70.0437 243.318 71.1563 244.176C69.6525 244.403 68.1995 243.97 67.0023 243.296C65.8287 242.593 64.8296 241.608 64.54 240.346Z" fill="#FAF6DF"/>
<path d="M73.9609 219.321C75.4427 219.476 76.6382 219.996 77.7661 220.599C78.8651 221.239 79.893 221.967 80.6314 223.061C79.1479 222.909 77.9523 222.389 76.8262 221.784C75.7323 221.14 74.701 220.412 73.9609 219.321Z" fill="#FAF6DF"/>
<path d="M88.9658 239.893C89.6838 238.329 90.5407 237.008 91.3349 235.628C92.1732 234.266 92.9217 232.9 93.9868 231.482C94.2324 233.157 93.7006 234.796 92.8489 236.266C91.953 237.719 90.7067 239.055 88.9658 239.893Z" fill="#FAF6DF"/>
<path d="M101.761 212.773C103.154 213.183 104.189 213.812 105.205 214.481C106.187 215.183 107.126 215.911 107.876 216.982C106.399 216.863 105.192 216.286 104.132 215.583C103.105 214.846 102.196 213.965 101.761 212.773Z" fill="#FAF6DF"/>
<path d="M127.335 217.917C128.702 218.738 129.579 219.857 130.265 221.038C130.903 222.239 131.36 223.525 131.226 224.932C130.092 223.897 129.392 222.784 128.73 221.641C128.117 220.48 127.552 219.313 127.335 217.917Z" fill="#FAF6DF"/>
<path d="M114.023 234.701C115.432 234.657 116.614 235.003 117.743 235.442C118.851 235.921 119.901 236.495 120.72 237.462C119.31 237.509 118.126 237.163 117 236.721C115.894 236.238 114.844 235.666 114.023 234.701Z" fill="#FAF6DF"/>
<path d="M145.128 244.575C145.873 242.977 146.916 241.643 147.992 240.32C149.113 239.021 150.256 237.749 151.798 236.624C151.419 238.315 150.483 239.786 149.375 241.141C148.225 242.47 146.892 243.705 145.128 244.575Z" fill="#FAF6DF"/>
<path d="M144.015 220.256C145.569 220.401 146.853 220.918 148.072 221.52C149.264 222.161 150.39 222.894 151.244 223.997C149.686 223.854 148.402 223.338 147.185 222.733C145.996 222.089 144.87 221.357 144.015 220.256Z" fill="#FAF6DF"/>
<path d="M171.259 222.126C172.632 222.41 173.66 223.018 174.605 223.7C175.516 224.418 176.341 225.215 176.818 226.336C175.443 226.054 174.415 225.445 173.474 224.76C172.564 224.041 171.738 223.245 171.259 222.126Z" fill="#FAF6DF"/>
<path d="M169.618 238.986C170.082 237.813 170.912 236.949 171.826 236.158C172.775 235.399 173.816 234.717 175.22 234.345C174.756 235.52 173.93 236.385 173.013 237.174C172.058 237.929 171.02 238.613 169.618 238.986Z" fill="#FAF6DF"/>
<path d="M195.696 226.77C196.267 225.775 197.126 225.142 198.05 224.596C199.004 224.085 200.03 223.662 201.342 223.605C200.773 224.603 199.916 225.234 198.988 225.78C198.032 226.287 197.007 226.71 195.696 226.77Z" fill="#FAF6DF"/>
</svg>
