<svg width="220" height="290" viewBox="0 0 220 290" fill="none" xmlns="http://www.w3.org/2000/svg">
<path d="M124.838 285C124.838 287.761 122.599 290 119.838 290H97.3882C94.6268 290 92.3882 287.761 92.3882 285V220.765C92.3882 218.003 94.6268 215.765 97.3882 215.765H119.838C122.599 215.765 124.838 218.003 124.838 220.765V285Z" fill="#BF8478"/>
<path d="M110.001 250.837V142.251C89.6093 169.35 55.3041 186.93 21.3282 186.811C33.9734 195.433 48.4884 199.584 62.8382 194.242C50.383 216.464 25.5207 232.546 0 232.001C10.126 234.188 24.8115 238.629 35.1627 239.07C52.5417 239.811 71.1646 237.604 84.6062 226.594C84.8313 232.144 83.3271 238.014 80.5425 242.826C74.1522 253.873 67.1309 265.526 55.6698 271.184C65.3586 269.738 73.8555 269.721 83.1462 266.623C92.4395 263.525 103.372 258.034 110.001 250.837Z" fill="#613636"/>
<path d="M110 250.837V142.251C130.39 169.35 164.697 186.93 198.672 186.811C186.028 195.433 171.513 199.584 157.162 194.242C169.617 216.464 194.48 232.546 220 232.001C209.875 234.188 195.19 238.629 184.838 239.07C167.459 239.811 148.835 237.604 135.395 226.594C135.17 232.144 136.674 238.014 139.459 242.826C145.849 253.873 152.869 265.526 164.331 271.184C154.642 269.738 146.146 269.721 136.854 266.623C127.562 263.525 116.628 258.034 110 250.837Z" fill="#613636"/>
<path d="M110.001 200.664V92.078C89.6093 119.178 55.3041 136.757 21.3282 136.638C33.9734 145.26 48.4884 149.411 62.8382 144.069C50.383 166.291 25.5207 182.373 0 181.828C10.126 184.015 24.8115 188.456 35.1627 188.897C52.5417 189.638 71.1646 187.431 84.6062 176.421C84.8313 181.971 83.3271 187.841 80.5425 192.654C74.1522 203.7 67.1309 215.353 55.6698 221.011C65.3586 219.565 73.8555 219.548 83.1462 216.45C92.4395 213.352 103.372 207.861 110.001 200.664Z" fill="#874545"/>
<path d="M110 200.664V92.078C130.39 119.178 164.697 136.757 198.672 136.638C186.028 145.26 171.513 149.411 157.162 144.069C169.617 166.291 194.48 182.373 220 181.828C209.875 184.015 195.19 188.456 184.838 188.897C167.459 189.638 148.835 187.431 135.395 176.421C135.17 181.971 136.674 187.841 139.459 192.654C145.849 203.7 152.869 215.353 164.331 221.011C154.642 219.565 146.146 219.548 136.854 216.45C127.562 213.352 116.628 207.861 110 200.664Z" fill="#874545"/>
<path d="M110 135.951V43.3311C92.6084 66.4463 63.3454 81.4407 34.3661 81.3392C45.1518 88.6928 57.5316 92.2337 69.7721 87.679C59.149 106.632 37.9418 120.349 16.1738 119.884C24.81 121.752 37.3368 125.539 46.1655 125.915C60.9889 126.545 76.8754 124.663 88.3404 115.272C88.5317 120.007 87.2487 125.015 84.874 129.117C79.4232 138.541 73.4337 148.481 63.6577 153.306C71.9217 152.073 79.1694 152.059 87.0938 149.417C95.0208 146.773 104.347 142.09 110 135.951Z" fill="#613636"/>
<path d="M110 135.951V43.3311C127.392 66.4463 156.654 81.4407 185.635 81.3392C174.849 88.6928 162.468 92.2337 150.227 87.679C160.852 106.632 182.059 120.349 203.827 119.884C195.19 121.752 182.664 125.539 173.834 125.915C159.011 126.545 143.125 124.663 131.66 115.272C131.469 120.007 132.752 125.015 135.127 129.117C140.578 138.541 146.567 148.481 156.342 153.306C148.078 152.073 140.831 152.059 132.906 149.417C124.98 146.773 115.653 142.09 110 135.951Z" fill="#613636"/>
<path d="M110.001 80.1281V-4.09017e-06C94.9551 19.9987 69.6387 32.9709 44.5682 32.8812C53.8992 39.2434 64.6095 42.3084 75.1988 38.3654C66.007 54.7625 47.6625 66.6312 28.8301 66.2291C36.3016 67.8428 47.1381 71.1187 54.7776 71.4444C67.601 71.9915 81.3444 70.3634 91.2623 62.2386C91.4288 66.3346 90.3176 70.6653 88.2643 74.2168C83.5474 82.3679 78.3659 90.9672 69.9081 95.1423C77.0595 94.0744 83.3288 94.0613 90.1849 91.7766C97.0422 89.4907 105.11 85.4382 110.001 80.1281Z" fill="#874545"/>
<path d="M110 80.1281V-4.09017e-06C125.046 19.9987 150.363 32.9709 175.432 32.8812C166.101 39.2434 155.392 42.3084 144.801 38.3654C153.993 54.7625 172.339 66.6312 191.171 66.2291C183.7 67.8428 172.863 71.1187 165.224 71.4444C152.401 71.9915 138.657 70.3634 128.739 62.2386C128.573 66.3346 129.684 70.6653 131.737 74.2168C136.453 82.3679 141.636 90.9672 150.092 95.1423C142.941 94.0744 136.673 94.0613 129.817 91.7766C122.959 89.4907 114.89 85.4382 110 80.1281Z" fill="#874545"/>
<path d="M70.0239 46.7649C72.1657 47.925 74.6302 46.053 76.3491 44.3168C79.7297 40.9011 83.1102 37.4867 86.4895 34.0722C86.4647 41.1265 86.4387 48.1808 86.414 55.235C91.4744 47.163 96.5361 39.091 101.598 31.0204C101.948 38.8986 103.388 46.7267 105.862 54.2054C108.203 46.8585 110.751 39.5801 113.503 32.3809C115.527 39.07 119.117 45.2673 123.893 50.3191C123.898 43.7315 124.105 37.1439 124.508 30.5695C131.05 41.4231 145.105 49.3554 157.447 51.6822" stroke="#FAF6DF" stroke-width="1.33333" stroke-miterlimit="10" stroke-linecap="round" stroke-linejoin="round"/>
<path d="M54.5869 109.09C61.6239 107.269 68.3407 104.183 74.3302 100.018C72.2717 105.758 70.2119 111.497 68.1521 117.237C75.3803 110.862 82.6085 104.488 89.8368 98.1135C90.1803 102.445 90.5264 106.779 90.8725 111.112C90.9129 111.617 91.0495 112.244 91.5388 112.358C91.9695 112.455 92.3455 112.07 92.6201 111.721C95.9121 107.542 98.94 103.148 101.676 98.5762C102.913 104.706 104.833 110.694 107.394 116.387C108.673 111.885 109.679 107.281 110.417 102.656C114.598 105.859 115.736 111.829 119.472 115.551C119.905 110.296 120.338 105.04 120.773 99.7825C124.491 104.105 128.928 107.79 133.841 110.633C133.526 107.833 133.478 105.023 132.614 102.345C139.253 108.645 147.293 113.423 155.963 116.218C153.601 111.25 151.237 106.28 148.875 101.313C154.841 104.49 161.37 106.578 168.055 107.448" stroke="#FAF6DF" stroke-width="1.33333" stroke-miterlimit="10" stroke-linecap="round" stroke-linejoin="round"/>
<path d="M38.5928 168.105C42.5407 169.893 47.1912 169.466 51.2341 167.911C55.2756 166.353 58.837 163.762 62.3438 161.199C60.4037 167.336 57.973 173.314 55.083 179.056C63.5474 173.499 71.3534 166.914 78.2824 159.488C78.1679 163.721 78.0351 168.053 76.5088 171.995C82.2836 169.663 88.0441 164.862 91.1149 159.385C94.6516 166.363 94.8403 174.633 97.9203 181.829C98.1454 182.357 98.6034 182.976 99.1343 182.775C99.4583 182.651 99.5988 182.271 99.7003 181.935C101.932 174.527 104.163 167.121 106.394 159.715C107.531 167.308 110.869 174.551 115.882 180.311C117.221 174.015 117.834 167.06 117.587 160.626C121.619 165.504 126.479 169.677 131.89 172.908C131.156 168.467 130.422 164.026 129.688 159.584C138.132 167.107 148.746 172.096 159.868 173.772C157.971 169.92 156.628 165.66 156.636 161.356C160.926 165.438 166.581 168.016 172.442 168.561C175.324 168.828 178.284 168.627 181.056 169.474" stroke="#FAF6DF" stroke-width="1.33333" stroke-miterlimit="10" stroke-linecap="round" stroke-linejoin="round"/>
<path d="M30.0854 223.192C35.1342 222.745 45.4879 222.906 50.2165 221.059C50.8957 221.952 50.3024 223.231 49.6856 224.171C47.6622 227.264 45.4541 230.231 43.0755 233.053C50.6407 232.937 58.1513 230.391 64.2657 225.873C64.3308 229.686 63.5787 233.51 62.0732 237.006" stroke="#FAF6DF" stroke-width="1.33333" stroke-miterlimit="10" stroke-linecap="round" stroke-linejoin="round"/>
<path d="M77.585 247.253C84.1756 243.682 92.7077 235.404 96.1832 228.699C97.0875 234.413 97.9945 240.127 98.8988 245.84C101.034 239.18 103.168 232.519 105.302 225.858C107.234 232.909 110.685 239.529 115.345 245.122C116.165 238.712 117.221 232.335 118.509 226.006C120.887 232.762 125.009 238.878 130.354 243.583C129.723 239.069 128.841 234.592 127.709 230.181C129.697 235.261 133.788 239.457 138.778 241.531" stroke="#FAF6DF" stroke-width="1.33333" stroke-miterlimit="10" stroke-linecap="round" stroke-linejoin="round"/>
<path d="M165.03 236.605C164.097 233.474 162.909 230.422 161.479 227.489C165.54 228.482 169.6 229.474 173.66 230.467C175.286 230.865 177.081 231.245 178.564 230.463C175.701 227.618 173.09 224.513 170.768 221.199C176.243 223.062 182.162 223.563 187.866 222.651" stroke="#FAF6DF" stroke-width="1.33333" stroke-miterlimit="10" stroke-linecap="round" stroke-linejoin="round"/>
</svg>
